<svg xmlns="http://www.w3.org/2000/svg" id="ICONS-64x" viewBox="0 0 64 64"><defs><style>.cls-1{fill:#fff}.cls-2{fill:#e5e5e5}.cls-3{fill:none;stroke:#556a8a;stroke-miterlimit:10;stroke-width:2px}.cls-4{fill:#2bc7f4}</style></defs><title>i_api-reference</title><path d="M63,32A31,31,0,1,1,32,1,31,31,0,0,1,63,32Z" class="cls-1"/><path d="M63,32A31,31,0,0,1,32,63V1A31,31,0,0,1,63,32Z" class="cls-2"/><path d="M63,32A31,31,0,1,1,32,1,31,31,0,0,1,63,32Z" class="cls-3"/><path d="M22,49.12a12.5,12.5,0,1,0,0-16.23" class="cls-3"/><polyline points="29 41 13 41 13 15 51 15 51 41 43 41" class="cls-3"/><circle cx="32.44" cy="41" r="6.5" class="cls-4"/></svg>