<svg xmlns="http://www.w3.org/2000/svg" viewBox="0 0 64 64"><defs><style>.cls-1{fill:#2bc7f4}.cls-2{fill:#55d2f6}</style></defs><title>i_backlog</title><g id="ICONS-64x"><rect width="18" height="10" x="2" y="14" class="cls-1"/><rect width="18" height="10" x="23" y="14" class="cls-1"/><polygon points="20 14 20 22.5 11.5 14 20 14" class="cls-2"/><polygon points="41 14 41 22.5 32.5 14 41 14" class="cls-2"/><rect width="18" height="10" x="2" y="27" class="cls-1"/><rect width="18" height="10" x="23" y="27" class="cls-1"/><polygon points="20 27 20 35.5 11.5 27 20 27" class="cls-2"/><rect width="18" height="10" x="2" y="40" class="cls-1"/><polygon points="20 40 20 48.5 11.5 40 20 40" class="cls-2"/><polygon points="41 27 41 35.5 32.5 27 41 27" class="cls-2"/><rect width="18" height="10" x="44" y="14" class="cls-1"/><polygon points="62 14 62 22.5 53.5 14 62 14" class="cls-2"/></g></svg>