<svg xmlns="http://www.w3.org/2000/svg" id="ICONS-64x" viewBox="0 0 64 64"><defs><style>.cls-1{fill:#fff}.cls-2{fill:#e5e5e5}.cls-3{fill:#2bc7f4}.cls-4{fill:none;stroke:#556a8a;stroke-miterlimit:10;stroke-width:2px}.cls-5{fill:#556a8a}</style></defs><title>i_code-edit</title><path d="M47.83,15.37l-.71-.71a4,4,0,0,0-5.66,0L18.18,38,15,47.5l9.55-3.18L47.83,21A4,4,0,0,0,47.83,15.37Z" class="cls-1"/><rect width="33" height="3" x="16.23" y="29.27" class="cls-2" transform="translate(-12.17 32.16) rotate(-45)"/><polygon points="24.43 43.74 24.28 43.88 15.79 46.71 18.62 38.22 18.77 38.08 24.43 43.74" class="cls-3"/><path d="M48.5,18.2a3.48,3.48,0,0,1-1,2.48L45.15,23l-5.66-5.66L41.82,15a3.51,3.51,0,0,1,5,0l.71.71A3.45,3.45,0,0,1,48.5,18.2Z" class="cls-3"/><path d="M47.83,15.37l-.71-.71a4,4,0,0,0-5.66,0L18.18,38,15,47.5l9.55-3.18L47.83,21A4,4,0,0,0,47.83,15.37Z" class="cls-4"/><path d="M48,57.51l.52,0a6,6,0,0,0,4.09-1.79c1-1,1.38-2.74,1.38-5.85v-9.6a11.68,11.68,0,0,1,2.1-6.56,5.9,5.9,0,0,1,3.2-2.51C55.78,30,54,27,54,22.33V12.57c0-3.13-.42-4.9-1.4-5.91a6.24,6.24,0,0,0-4.17-1.8l-.49,0,.15-2,.51,0A8.26,8.26,0,0,1,54,5.27c1.37,1.41,2,3.59,2,7.3v9.76c0,4.21,1.7,6.58,5.19,7.24l.81.15V32.6l-.78.15a4.63,4.63,0,0,0-3.38,2A9.82,9.82,0,0,0,56,40.22v9.6c0,3.69-.58,5.85-2,7.25a7.86,7.86,0,0,1-5.29,2.38l-.48,0Z" class="cls-5"/><path d="M16,57.51l-.52,0a6,6,0,0,1-4.09-1.79c-1-1-1.38-2.74-1.38-5.85v-9.6a11.68,11.68,0,0,0-2.1-6.56,5.9,5.9,0,0,0-3.2-2.51C8.22,30,10,27,10,22.33V12.57c0-3.13.42-4.9,1.4-5.91a6.24,6.24,0,0,1,4.17-1.8l.49,0-.15-2-.51,0A8.26,8.26,0,0,0,10,5.27c-1.37,1.41-2,3.59-2,7.3v9.76c0,4.21-1.7,6.58-5.19,7.24L2,29.73V32.6l.78.15a4.63,4.63,0,0,1,3.38,2A9.82,9.82,0,0,1,8,40.22v9.6c0,3.69.58,5.85,2,7.25a7.86,7.86,0,0,0,5.29,2.38l.48,0Z" class="cls-5"/><line x1="18.72" x2="24.62" y1="37.65" y2="43.55" class="cls-4"/></svg>