<svg xmlns="http://www.w3.org/2000/svg" viewBox="0 0 64 64"><defs><style>.cls-1{fill:none;stroke:#556a8a;stroke-miterlimit:10;stroke-width:2px}.cls-2{fill:#e5e5e5}.cls-3{fill:#2bc7f4}</style></defs><title>i_library</title><g id="ICONS-64x"><rect width="20" height="61" x="3" y="2" class="cls-1"/><rect width="17" height="53" x="43" y="10" class="cls-1"/><rect width="20" height="61" x="23" y="2" class="cls-1"/><line x1="3" x2="22" y1="9" y2="9" class="cls-1"/><line x1="3" x2="22" y1="56" y2="56" class="cls-1"/><rect width="6" height="41" x="44" y="16" class="cls-2"/><line x1="43" x2="60" y1="17" y2="17" class="cls-1"/><rect width="18" height="5" x="4" y="3" class="cls-2"/><rect width="18" height="5" x="4" y="57" class="cls-2"/><rect width="15" height="5" x="44" y="11" class="cls-2"/><rect width="15" height="7" x="44" y="55" class="cls-2"/><rect width="7" height="59" x="24" y="3" class="cls-2"/><rect width="6" height="45" x="4" y="10" class="cls-2"/><rect width="14" height="5" x="26" y="7" class="cls-3"/><rect width="14" height="5" x="26" y="53" class="cls-3"/><line x1="43" x2="60" y1="55" y2="55" class="cls-1"/></g></svg>