<svg xmlns="http://www.w3.org/2000/svg" id="ICONS-64x" viewBox="0 0 64 64"><defs><style>.cls-1,.cls-7{fill:#fff}.cls-2{fill:#e5e5e5}.cls-3{fill:#556a8a}.cls-4{fill:#55d2f6}.cls-5{fill:#2bc7f4}.cls-6{fill:none}.cls-7{stroke:#556a8a;stroke-miterlimit:10;stroke-width:2px}</style></defs><title>i_overview</title><path d="M32,62.49A30.48,30.48,0,0,1,10.44,10.44,30.49,30.49,0,1,1,53.56,53.56,30.29,30.29,0,0,1,32,62.49Z" class="cls-1"/><path d="M10.35,9.93A30.25,30.25,0,0,1,53.13,52.71Z" class="cls-2"/><path d="M32,3A29,29,0,0,1,52.5,52.5a29,29,0,1,1-41-41A28.8,28.8,0,0,1,32,3h0m0-2a31,31,0,1,0,21.91,9.08A30.89,30.89,0,0,0,32,1Z" class="cls-3"/><polygon points="13.62 13.62 26.34 37.66 50.38 50.38 35 28 13.62 13.62" class="cls-4"/><polygon points="13.62 13.62 50.38 50.38 37.66 26.34 13.62 13.62" class="cls-5"/><rect width="64" height="64" class="cls-6"/><line x1="32" x2="32" y1="6" y2="13" class="cls-7"/><line x1="32" x2="32" y1="51" y2="58" class="cls-7"/><line x1="6" x2="13" y1="31" y2="31" class="cls-7"/><line x1="51" x2="58" y1="31" y2="31" class="cls-7"/><circle cx="32" cy="32" r="3" class="cls-1"/></svg>