<svg xmlns="http://www.w3.org/2000/svg" id="ICONS-64x" viewBox="0 0 64 64"><defs><style>.cls-1{fill:#556a8a}.cls-2{fill:#fff}.cls-3{fill:#2bc7f4}.cls-4{fill:#e5e5e5}.cls-5{fill:none;stroke:#556a8a;stroke-miterlimit:10;stroke-width:2px}</style></defs><title>i_video</title><rect width="64" height="49" y="7" class="cls-1" rx="2" ry="2"/><g><rect width="5" height="5" x="2" y="9" class="cls-2"/><rect width="5" height="5" x="2" y="17" class="cls-2"/><rect width="5" height="5" x="2" y="25" class="cls-2"/><rect width="5" height="5" x="2" y="33" class="cls-2"/><rect width="5" height="5" x="2" y="41" class="cls-2"/><rect width="5" height="5" x="2" y="49" class="cls-2"/></g><g><rect width="5" height="5" x="57" y="9" class="cls-2"/><rect width="5" height="5" x="57" y="17" class="cls-2"/><rect width="5" height="5" x="57" y="25" class="cls-2"/><rect width="5" height="5" x="57" y="33" class="cls-2"/><rect width="5" height="5" x="57" y="41" class="cls-2"/><rect width="5" height="5" x="57" y="49" class="cls-2"/></g><rect width="46" height="45" x="9" y="9" class="cls-2"/><polygon points="28 38.5 28 22.5 42 30.5 28 38.5" class="cls-3"/><rect width="46" height="4" x="9" y="50" class="cls-4"/><rect width="46" height="4" x="9" y="9" class="cls-4"/><path d="M48,30.5a15,15,0,0,1-15,15,14.75,14.75,0,0,1-4.62-.73A15,15,0,1,1,48,30.5Z" class="cls-5"/></svg>