<svg xmlns="http://www.w3.org/2000/svg" xmlns:xlink="http://www.w3.org/1999/xlink" id="Icons" viewBox="0 0 64 64"><defs><style>.cls-1,.cls-10,.cls-11,.cls-12,.cls-13,.cls-14,.cls-15,.cls-16,.cls-17,.cls-18,.cls-2,.cls-3,.cls-4,.cls-5,.cls-6,.cls-7,.cls-8,.cls-9{fill-rule:evenodd}.cls-1{fill:url(#Linear_Gradient_1)}.cls-2{fill:url(#Linear_Gradient_2)}.cls-3{fill:url(#Linear_Gradient_2-2)}.cls-4{fill:url(#Linear_Gradient_3)}.cls-5{fill:url(#Linear_Gradient_4)}.cls-6{fill:url(#Linear_Gradient_5)}.cls-7{fill:url(#Linear_Gradient_6)}.cls-8{fill:url(#Linear_Gradient_7)}.cls-9{fill:#fff}.cls-10{fill:url(#Linear_Gradient_8)}.cls-11{fill:url(#Linear_Gradient_9)}.cls-12{fill:url(#Linear_Gradient_10)}.cls-13{fill:url(#Linear_Gradient_11)}.cls-14{fill:#aa3e35}.cls-15{fill:url(#Radial_Gradient_1)}.cls-16{fill:url(#Radial_Gradient_2)}.cls-17{fill:url(#Linear_Gradient_12)}.cls-18{fill:url(#Linear_Gradient_13)}</style><linearGradient id="Linear_Gradient_1" x1="51.47" x2="40.05" y1="64.89" y2="44.72" data-name="Linear Gradient 1" gradientUnits="userSpaceOnUse"><stop offset="0" stop-color="#f68f71"/><stop offset=".41" stop-color="#dc5242"/><stop offset=".99" stop-color="#a72c32"/><stop offset="1" stop-color="#a72c32"/></linearGradient><linearGradient id="Linear_Gradient_2" x1="57.13" x2="42.43" y1="47.97" y2="38.11" data-name="Linear Gradient 2" gradientUnits="userSpaceOnUse"><stop offset="0" stop-color="#9b3f34"/><stop offset=".99" stop-color="#a23e36"/><stop offset="1" stop-color="#a23e36"/></linearGradient><linearGradient id="Linear_Gradient_2-2" x1="45.37" x2="30.69" y1="65.5" y2="55.65" xlink:href="#Linear_Gradient_2"/><linearGradient id="Linear_Gradient_3" x1="14.55" x2="16.83" y1="40.81" y2="55.65" data-name="Linear Gradient 3" gradientUnits="userSpaceOnUse"><stop offset="0" stop-color="#fff"/><stop offset=".23" stop-color="#e28b6f"/><stop offset=".46" stop-color="#da6144"/><stop offset=".99" stop-color="#a60003"/><stop offset="1" stop-color="#a60003"/></linearGradient><linearGradient id="Linear_Gradient_4" x1="30.2" x2="31.04" y1="26.96" y2="42.1" data-name="Linear Gradient 4" gradientUnits="userSpaceOnUse"><stop offset="0" stop-color="#fff"/><stop offset=".23" stop-color="#e08a6d"/><stop offset=".56" stop-color="#c14435"/><stop offset=".99" stop-color="#b13430"/><stop offset="1" stop-color="#b13430"/></linearGradient><linearGradient id="Linear_Gradient_5" x1="44.09" x2="46.6" y1="12.98" y2="23.82" data-name="Linear Gradient 5" gradientUnits="userSpaceOnUse"><stop offset="0" stop-color="#fff"/><stop offset=".18" stop-color="#df8063"/><stop offset=".4" stop-color="#c94d37"/><stop offset=".99" stop-color="#b13430"/><stop offset="1" stop-color="#b13430"/></linearGradient><linearGradient id="Linear_Gradient_6" x1="36.43" x2="47.25" y1="9.15" y2="3.74" data-name="Linear Gradient 6" gradientUnits="userSpaceOnUse"><stop offset="0" stop-color="#fff"/><stop offset=".54" stop-color="#c94838"/><stop offset=".99" stop-color="#c12d2f"/><stop offset="1" stop-color="#c12d2f"/></linearGradient><linearGradient id="Linear_Gradient_7" x1="5.06" x2="5.95" y1="37.04" y2="45.98" data-name="Linear Gradient 7" gradientUnits="userSpaceOnUse"><stop offset="0" stop-color="#fff"/><stop offset=".31" stop-color="#da6548"/><stop offset=".99" stop-color="#c14433"/><stop offset="1" stop-color="#c14433"/></linearGradient><linearGradient id="Linear_Gradient_8" x1="-1.09" x2="40.82" y1="48.36" y2="5.26" data-name="Linear Gradient 8" gradientUnits="userSpaceOnUse"><stop offset="0" stop-color="#bd0012"/><stop offset=".07" stop-color="#fff"/><stop offset=".17" stop-color="#fff"/><stop offset=".27" stop-color="#c95841"/><stop offset=".33" stop-color="#983734"/><stop offset=".46" stop-color="#ae4231"/><stop offset=".72" stop-color="#b93e2f"/><stop offset=".99" stop-color="#de4e2b"/><stop offset="1" stop-color="#de4e2b"/></linearGradient><linearGradient id="Linear_Gradient_9" x1="31" x2="18.4" y1="52.74" y2="49.63" data-name="Linear Gradient 9" gradientUnits="userSpaceOnUse"><stop offset="0" stop-color="#9f3633"/><stop offset=".54" stop-color="#a73532"/><stop offset=".99" stop-color="#b13439"/><stop offset="1" stop-color="#b13439"/></linearGradient><linearGradient id="Linear_Gradient_10" x1="52.67" x2="41.45" y1="37.58" y2="27.52" data-name="Linear Gradient 10" gradientUnits="userSpaceOnUse"><stop offset="0" stop-color="#923c36"/><stop offset=".99" stop-color="#aa3531"/><stop offset="1" stop-color="#aa3531"/></linearGradient><linearGradient id="Linear_Gradient_11" x1="56.79" x2="51.2" y1="19.09" y2="13.12" data-name="Linear Gradient 11" gradientUnits="userSpaceOnUse"><stop offset="0" stop-color="#8d3e36"/><stop offset=".99" stop-color="#aa3e37"/><stop offset="1" stop-color="#aa3e37"/></linearGradient><radialGradient id="Radial_Gradient_1" cx="43.2" cy="26.8" r="13.73" data-name="Radial Gradient 1" gradientTransform="translate(0 0.82)" gradientUnits="userSpaceOnUse"><stop offset="0" stop-color="#b13430"/><stop offset=".99" stop-color="#923834"/><stop offset="1" stop-color="#923834"/></radialGradient><radialGradient id="Radial_Gradient_2" cx="24.19" cy="44.89" r="18.25" data-name="Radial Gradient 2" gradientTransform="translate(0 0.82)" gradientUnits="userSpaceOnUse"><stop offset="0" stop-color="#ae3531"/><stop offset=".99" stop-color="#953a36"/><stop offset="1" stop-color="#953a36"/></radialGradient><linearGradient id="Linear_Gradient_12" x1="11.27" x2="6.71" y1="59.93" y2="44.47" data-name="Linear Gradient 12" gradientUnits="userSpaceOnUse"><stop offset="0" stop-color="#994939"/><stop offset=".43" stop-color="#aa3a36"/><stop offset=".99" stop-color="#b83936"/><stop offset="1" stop-color="#b83936"/></linearGradient><linearGradient id="Linear_Gradient_13" x1="46.15" x2="56.35" y1="8.68" y2="13.18" data-name="Linear Gradient 13" gradientUnits="userSpaceOnUse"><stop offset="0" stop-color="#b9392f"/><stop offset=".44" stop-color="#a23a36"/><stop offset=".99" stop-color="#8d463a"/><stop offset="1" stop-color="#8d463a"/></linearGradient></defs><title>logo_ruby</title><g><polygon points="15.01 60 54.93 57.28 58 16.92 45.84 41.64 15.01 60" class="cls-1"/><polygon points="42.21 45.88 54.99 57.26 51.56 33.51 42.21 45.88" class="cls-2"/><polygon points="15.14 59.95 55.04 57.26 29.9 55.28 15.14 59.95" class="cls-3"/><polygon points="7.64 42.29 15.17 59.95 21.45 39.32 7.64 42.29" class="cls-4"/><polygon points="19.9 38.8 42.21 45.95 36.43 23.26 19.9 38.8" class="cls-5"/><polygon points="36.71 24.89 56.69 23.58 41.06 10.78 36.71 24.89" class="cls-6"/><polygon points="34.39 6.14 49.38 6.21 40.19 11.3 34.39 6.14" class="cls-7"/><polygon points="4.74 33.77 4 49.21 7.85 42.16 4.74 33.77" class="cls-8"/><path d="M4.53,33.51l3.13,8.92,13.62-3.06L36.83,24.87l4.39-14L34.31,6,22.56,10.41c-3.7,3.45-10.88,10.28-11.14,10.41S6.68,29.45,4.53,33.51Z" class="cls-9"/><path d="M15.53,17.49c8-8,18.36-12.69,22.33-8.67s-.24,13.77-8.26,21.74S11.37,43.51,7.4,39.49,7.51,25.46,15.53,17.49Z" class="cls-10"/><path d="M15.17,59.95,21.4,39.25,42.1,45.92C34.62,53,26.29,58.9,15.17,59.95Z" class="cls-11"/><path d="M36.86,24.83l5.31,21.1C48.42,39.34,54,32.25,56.78,23.49Z" class="cls-12"/><path d="M56.72,23.6c2.13-6.43,2.62-15.66-7.41-17.38l-8.23,4.56Z" class="cls-13"/><path d="M4,49.11C4.29,59.73,11.93,59.89,15.19,60L7.67,42.38Z" class="cls-14"/><path d="M36.89,24.86c4.8,3,14.48,8.9,14.68,9s4.17-6.54,5.05-10.33Z" class="cls-15"/><path d="M21.4,39.25l8.33,16.11A53.87,53.87,0,0,0,42,45.93Z" class="cls-16"/><path d="M7.64,42.4,6.46,56.49c2.23,3.05,5.29,3.32,8.5,3.08C12.64,53.77,8,42.17,7.64,42.4Z" class="cls-17"/><path d="M41,10.81l16.55,2.33C56.7,9.39,54,7,49.37,6.21Z" class="cls-18"/></g></svg>