<svg xmlns="http://www.w3.org/2000/svg" id="Icons" viewBox="0 0 64 64"><defs><style>.cls-1{fill:#a4c439}.cls-2{fill:#fff}</style></defs><title>logo_android</title><rect width="1" height="9" x="23.29" y="-.28" class="cls-1" rx=".5" ry=".5" transform="translate(1.88 14.41) rotate(-35)"/><rect width="1" height="9" x="41.13" y="-.28" class="cls-1" rx=".5" ry=".5" transform="translate(73.3 31.56) rotate(-145)"/><g><path d="M10,22a3.94,3.94,0,0,0-4,3.88V42.12A3.94,3.94,0,0,0,10,46a3.94,3.94,0,0,0,4-3.88V25.88A3.94,3.94,0,0,0,10,22" class="cls-1"/><path d="M25,39a3.94,3.94,0,0,0-4,3.88V59.12a4,4,0,0,0,8,0V42.88A3.94,3.94,0,0,0,25,39" class="cls-1"/><path d="M39,39a3.94,3.94,0,0,0-4,3.88V59.12a4,4,0,0,0,8,0V42.88A3.94,3.94,0,0,0,39,39" class="cls-1"/><path d="M54,22a3.94,3.94,0,0,0-4,3.88V42.12a4,4,0,0,0,8,0V25.88A3.94,3.94,0,0,0,54,22" class="cls-1"/></g><path d="M15,45a5.93,5.93,0,0,0,5.83,6H43.17A5.93,5.93,0,0,0,49,45V23H15Z" class="cls-1"/><path d="M49,21.93a17,17,0,0,0-34,0Z" class="cls-1"/><path d="M39.5,15A1.5,1.5,0,1,1,41,13.5,1.5,1.5,0,0,1,39.5,15" class="cls-2"/><path d="M24.5,15A1.5,1.5,0,1,1,26,13.5,1.5,1.5,0,0,1,24.5,15" class="cls-2"/></svg>